<?xml version="1.0" encoding="UTF-8"?>
<svg version="1.1" xmlns="http://www.w3.org/2000/svg" width="1200" height="1200">
<path d="M0 0 C1.27417786 -0.00705963 2.54835571 -0.01411926 3.86114502 -0.02139282 C7.95170669 -0.04092196 12.04220858 -0.04608484 16.1328125 -0.046875 C17.17844486 -0.04731686 17.17844486 -0.04731686 18.24520111 -0.04776764 C38.72820107 -0.04916661 58.95780909 0.11844089 79.2578125 3.203125 C80.69446418 3.41478523 82.1311523 3.62619815 83.56787109 3.83740234 C158.78083949 15.02255687 231.24080568 41.53198417 293.2578125 86.203125 C294.03141113 86.76032227 294.80500977 87.31751953 295.60205078 87.89160156 C305.05205663 94.72666406 314.35336079 101.66652581 323.2578125 109.203125 C324.28855056 110.06051166 325.3198281 110.91725005 326.3515625 111.7734375 C338.70910465 122.06798501 350.24967014 133.10303511 361.6328125 144.453125 C362.1550943 144.97272797 362.6773761 145.49233093 363.21548462 146.02767944 C369.11585129 151.90509335 374.87118778 157.84449134 380.2578125 164.203125 C381.1034375 165.16734375 381.9490625 166.1315625 382.8203125 167.125 C391.13628655 176.77366219 398.73424841 186.92966671 406.2578125 197.203125 C406.79583496 197.9357959 407.33385742 198.6684668 407.88818359 199.42333984 C419.91793845 215.88450646 430.55631667 233.27914177 440.2578125 251.203125 C440.69915527 252.00814453 441.14049805 252.81316406 441.59521484 253.64257812 C476.0492292 316.71574805 497.19430778 390.80641491 497.4609375 462.9453125 C497.46799713 464.21949036 497.47505676 465.49366821 497.48233032 466.80645752 C497.50185946 470.89701919 497.50702234 474.98752108 497.5078125 479.078125 C497.50825436 480.12375736 497.50825436 480.12375736 497.50870514 481.19051361 C497.51010411 501.67351357 497.34249661 521.90312159 494.2578125 542.203125 C494.04615227 543.63977668 493.83473935 545.0764648 493.62353516 546.51318359 C482.4561715 621.60651982 455.95444602 694.32830771 411.2578125 756.203125 C410.72865234 756.94191895 410.19949219 757.68071289 409.65429688 758.44189453 C399.09928069 773.14526339 387.97064202 787.35265891 375.63671875 800.61328125 C373.78290543 802.63147211 371.99836966 804.67590716 370.21875 806.7578125 C365.68340242 811.95734507 360.80108876 816.80976606 355.9152832 821.67602539 C354.32322284 823.26272446 352.7365826 824.85470242 351.15039062 826.44726562 C345.69155373 831.90993814 340.14776854 837.20306 334.2578125 842.203125 C333.20915202 843.12818822 332.16220281 844.05519591 331.1171875 844.984375 C321.26553321 853.64030983 310.84236041 861.47037238 300.2578125 869.203125 C299.5265918 869.73969727 298.79537109 870.27626953 298.04199219 870.82910156 C223.20870763 925.52164132 127.75334146 960.06163777 34.515625 960.40625 C33.24144714 960.41330963 31.96726929 960.42036926 30.65447998 960.42764282 C26.56391831 960.44717196 22.47341642 960.45233484 18.3828125 960.453125 C17.33718014 960.45356686 17.33718014 960.45356686 16.27042389 960.45401764 C-4.21257607 960.45541661 -24.44218409 960.28780911 -44.7421875 957.203125 C-46.17883918 956.99146477 -47.6155273 956.78005185 -49.05224609 956.56884766 C-124.10614116 945.40734942 -196.91095653 918.86827298 -258.7421875 874.203125 C-259.48098145 873.67396484 -260.21977539 873.14480469 -260.98095703 872.59960938 C-275.68432589 862.04459319 -289.89172141 850.91595452 -303.15234375 838.58203125 C-305.17053461 836.72821793 -307.21496966 834.94368216 -309.296875 833.1640625 C-314.49640757 828.62871492 -319.34882856 823.74640126 -324.21508789 818.8605957 C-325.80178696 817.26853534 -327.39376492 815.6818951 -328.98632812 814.09570312 C-334.44900064 808.63686623 -339.7421225 803.09308104 -344.7421875 797.203125 C-345.66725072 796.15446452 -346.59425841 795.10751531 -347.5234375 794.0625 C-356.17937233 784.21084571 -364.00943488 773.78767291 -371.7421875 763.203125 C-372.5470459 762.10629395 -372.5470459 762.10629395 -373.36816406 760.98730469 C-432.63929098 679.88935008 -463.33880407 580.83957183 -463.0546875 480.765625 C-463.05246494 479.38121549 -463.05028843 477.9968059 -463.04815674 476.61239624 C-463.00562434 456.67330574 -462.70316932 436.96132996 -459.7421875 417.203125 C-459.6403717 416.51720276 -459.53855591 415.83128052 -459.43365479 415.12457275 C-450.45684486 355.0285559 -431.91724046 298.63446166 -402.7421875 245.203125 C-402.12126221 244.06520508 -402.12126221 244.06520508 -401.48779297 242.90429688 C-386.56667189 215.89876975 -368.02659425 190.39507741 -347.7421875 167.203125 C-347.11183594 166.47351563 -346.48148437 165.74390625 -345.83203125 164.9921875 C-344.1479144 163.05104143 -342.44643459 161.12661329 -340.7421875 159.203125 C-340.12947998 158.50558105 -339.51677246 157.80803711 -338.88549805 157.08935547 C-333.08185008 150.54955156 -327.01361005 144.32011518 -320.8215332 138.15209961 C-319.17477346 136.51072704 -317.53346655 134.86403681 -315.89257812 133.21679688 C-310.34847945 127.66893899 -304.73631684 122.26791859 -298.7421875 117.203125 C-297.77796875 116.3575 -296.81375 115.511875 -295.8203125 114.640625 C-286.17165031 106.32465095 -276.01564579 98.72668909 -265.7421875 91.203125 C-264.64318115 90.39609131 -264.64318115 90.39609131 -263.52197266 89.57275391 C-188.6876705 34.8841446 -93.2364522 0.34460755 0 0 Z " fill="#FECB4C" transform="translate(582.7421875,119.796875)"/>
<path d="M0 0 C8.11017192 6.45793776 15.16940811 13.2285224 21.28613281 21.65576172 C21.88071289 22.464729 21.88071289 22.464729 22.48730469 23.29003906 C37.54005941 43.98464139 45.7556569 67.44184045 49.28613281 92.65576172 C49.41761719 93.59033203 49.54910156 94.52490234 49.68457031 95.48779297 C53.97328562 133.21689658 44.46663699 175.89028985 20.62597656 205.89013672 C2.23762926 227.62461066 -19.75216342 243.84980645 -48.71386719 246.65576172 C-74.6728341 248.47061335 -97.95502018 239.81447471 -117.70996094 223.12451172 C-136.68767869 206.52165582 -148.71519387 185.52950319 -156.46386719 161.71826172 C-156.88659912 160.43326782 -156.88659912 160.43326782 -157.31787109 159.12231445 C-161.77147185 144.861486 -163.20928447 131.29085484 -163.10498047 116.43823242 C-163.08890368 113.72442224 -163.10492104 111.01210518 -163.12402344 108.29833984 C-163.14242294 93.68781015 -161.39267931 79.79263937 -157.08886719 65.78076172 C-156.8365332 64.95616455 -156.58419922 64.13156738 -156.32421875 63.28198242 C-146.22347221 31.7036378 -125.4071853 3.98864038 -95.71386719 -11.34423828 C-63.59739769 -27.04119389 -27.83189673 -21.82940505 0 0 Z " fill="#664500" transform="translate(656.7138671875,673.34423828125)"/>
<path d="M0 0 C0.886875 0.4021875 1.77375 0.804375 2.6875 1.21875 C23.40392433 11.57696216 35.61477834 31.8083008 43 53 C46.35675621 64.02934182 47.21042339 74.69954855 47.24023438 86.17553711 C47.24984079 88.40062302 47.28087503 90.62474334 47.3125 92.84960938 C47.51760557 120.77379343 38.30481939 146.84097848 19.125 167.3125 C6.43713204 179.44543139 -7.22331422 183.54077886 -24.25390625 183.27734375 C-30.08072105 183.04720231 -34.83013536 181.6940366 -40 179 C-40.8353125 178.57589844 -41.670625 178.15179687 -42.53125 177.71484375 C-62.07205194 166.88899823 -73.93720469 147.60876443 -81 127 C-84.26291107 115.42110937 -85.18667911 104.35825427 -85.18530273 92.38378906 C-85.18748077 90.26867273 -85.20566372 88.15408643 -85.22460938 86.0390625 C-85.25841948 77.85090269 -84.67006143 70.03891421 -83 62 C-82.80873535 61.02337402 -82.6174707 60.04674805 -82.42041016 59.04052734 C-78.37160313 39.25320636 -66.73494652 19.00717439 -50.30859375 7.0390625 C-35.5507085 -2.69005796 -16.96477386 -7.77552135 0 0 Z " fill="#664500" transform="translate(779,390)"/>
<path d="M0 0 C0.886875 0.4021875 1.77375 0.804375 2.6875 1.21875 C23.40392433 11.57696216 35.61477834 31.8083008 43 53 C46.35675621 64.02934182 47.21042339 74.69954855 47.24023438 86.17553711 C47.24984079 88.40062302 47.28087503 90.62474334 47.3125 92.84960938 C47.51760557 120.77379343 38.30481939 146.84097848 19.125 167.3125 C6.43713204 179.44543139 -7.22331422 183.54077886 -24.25390625 183.27734375 C-30.08072105 183.04720231 -34.83013536 181.6940366 -40 179 C-40.8353125 178.57589844 -41.670625 178.15179687 -42.53125 177.71484375 C-62.07205194 166.88899823 -73.93720469 147.60876443 -81 127 C-84.26291107 115.42110937 -85.18667911 104.35825427 -85.18530273 92.38378906 C-85.18748077 90.26867273 -85.20566372 88.15408643 -85.22460938 86.0390625 C-85.25841948 77.85090269 -84.67006143 70.03891421 -83 62 C-82.80873535 61.02337402 -82.6174707 60.04674805 -82.42041016 59.04052734 C-78.37160313 39.25320636 -66.73494652 19.00717439 -50.30859375 7.0390625 C-35.5507085 -2.69005796 -16.96477386 -7.77552135 0 0 Z " fill="#664500" transform="translate(459,390)"/>
</svg>
